<mxfile host="Electron" modified="2024-07-12T11:22:01.451Z" agent="Mozilla/5.0 (X11; Linux x86_64) AppleWebKit/537.36 (KHTML, like Gecko) draw.io/24.2.5 Chrome/120.0.6099.109 Electron/28.1.0 Safari/537.36" etag="uNfYIUQC8Ltn3BtGIylg" version="24.2.5" type="device">
  <diagram name="PÃ¡gina-1" id="VWSUlTWA6Vb1e547mwaN">
    <mxGraphModel dx="1434" dy="838" grid="1" gridSize="10" guides="1" tooltips="1" connect="1" arrows="1" fold="1" page="1" pageScale="1" pageWidth="827" pageHeight="1169" math="0" shadow="0">
      <root>
        <mxCell id="0" />
        <mxCell id="1" parent="0" />
        <mxCell id="XeZ-vzeyU4aoVtzkD-Sr-14" style="edgeStyle=orthogonalEdgeStyle;rounded=0;orthogonalLoop=1;jettySize=auto;html=1;entryX=0;entryY=0.5;entryDx=0;entryDy=0;" edge="1" parent="1" source="XeZ-vzeyU4aoVtzkD-Sr-1" target="XeZ-vzeyU4aoVtzkD-Sr-12">
          <mxGeometry relative="1" as="geometry" />
        </mxCell>
        <mxCell id="XeZ-vzeyU4aoVtzkD-Sr-16" style="edgeStyle=orthogonalEdgeStyle;rounded=0;orthogonalLoop=1;jettySize=auto;html=1;exitX=1;exitY=0.5;exitDx=0;exitDy=0;" edge="1" parent="1" source="XeZ-vzeyU4aoVtzkD-Sr-1" target="XeZ-vzeyU4aoVtzkD-Sr-15">
          <mxGeometry relative="1" as="geometry" />
        </mxCell>
        <mxCell id="XeZ-vzeyU4aoVtzkD-Sr-1" value="BT Instance" style="swimlane;whiteSpace=wrap;html=1;" vertex="1" parent="1">
          <mxGeometry x="180" y="130" width="486" height="500" as="geometry" />
        </mxCell>
        <mxCell id="XeZ-vzeyU4aoVtzkD-Sr-3" value="Cluster (us_east1_a)" style="swimlane;whiteSpace=wrap;html=1;" vertex="1" parent="XeZ-vzeyU4aoVtzkD-Sr-1">
          <mxGeometry x="28" y="40" width="200" height="200" as="geometry" />
        </mxCell>
        <mxCell id="XeZ-vzeyU4aoVtzkD-Sr-6" value="Node1" style="shape=cylinder3;whiteSpace=wrap;html=1;boundedLbl=1;backgroundOutline=1;size=15;" vertex="1" parent="XeZ-vzeyU4aoVtzkD-Sr-3">
          <mxGeometry x="10" y="100" width="60" height="80" as="geometry" />
        </mxCell>
        <mxCell id="XeZ-vzeyU4aoVtzkD-Sr-7" value="Node2" style="shape=cylinder3;whiteSpace=wrap;html=1;boundedLbl=1;backgroundOutline=1;size=15;" vertex="1" parent="XeZ-vzeyU4aoVtzkD-Sr-3">
          <mxGeometry x="120" y="80" width="60" height="80" as="geometry" />
        </mxCell>
        <mxCell id="XeZ-vzeyU4aoVtzkD-Sr-4" value="Cluster (us_east1_b)" style="swimlane;whiteSpace=wrap;html=1;" vertex="1" parent="XeZ-vzeyU4aoVtzkD-Sr-1">
          <mxGeometry x="258" y="40" width="200" height="200" as="geometry" />
        </mxCell>
        <mxCell id="XeZ-vzeyU4aoVtzkD-Sr-8" value="Node1" style="shape=cylinder3;whiteSpace=wrap;html=1;boundedLbl=1;backgroundOutline=1;size=15;" vertex="1" parent="XeZ-vzeyU4aoVtzkD-Sr-4">
          <mxGeometry x="70" y="60" width="60" height="80" as="geometry" />
        </mxCell>
        <mxCell id="XeZ-vzeyU4aoVtzkD-Sr-5" value="Cluster (europe_west1_a)" style="swimlane;whiteSpace=wrap;html=1;" vertex="1" parent="XeZ-vzeyU4aoVtzkD-Sr-1">
          <mxGeometry x="141" y="280" width="200" height="200" as="geometry" />
        </mxCell>
        <mxCell id="XeZ-vzeyU4aoVtzkD-Sr-9" value="Node1" style="shape=cylinder3;whiteSpace=wrap;html=1;boundedLbl=1;backgroundOutline=1;size=15;" vertex="1" parent="XeZ-vzeyU4aoVtzkD-Sr-5">
          <mxGeometry x="27" y="29" width="60" height="80" as="geometry" />
        </mxCell>
        <mxCell id="XeZ-vzeyU4aoVtzkD-Sr-10" value="Node2" style="shape=cylinder3;whiteSpace=wrap;html=1;boundedLbl=1;backgroundOutline=1;size=15;" vertex="1" parent="XeZ-vzeyU4aoVtzkD-Sr-5">
          <mxGeometry x="127" y="50" width="60" height="80" as="geometry" />
        </mxCell>
        <mxCell id="XeZ-vzeyU4aoVtzkD-Sr-11" value="Node3" style="shape=cylinder3;whiteSpace=wrap;html=1;boundedLbl=1;backgroundOutline=1;size=15;" vertex="1" parent="XeZ-vzeyU4aoVtzkD-Sr-5">
          <mxGeometry x="37" y="115" width="60" height="80" as="geometry" />
        </mxCell>
        <mxCell id="XeZ-vzeyU4aoVtzkD-Sr-12" value="&lt;h1 style=&quot;margin-top: 0px;&quot;&gt;MyTable1&lt;/h1&gt;&lt;p&gt;Columns, Column Groups, Timestamp/Version&lt;/p&gt;" style="text;html=1;whiteSpace=wrap;overflow=hidden;rounded=0;" vertex="1" parent="1">
          <mxGeometry x="770" y="130" width="180" height="120" as="geometry" />
        </mxCell>
        <mxCell id="XeZ-vzeyU4aoVtzkD-Sr-15" value="&lt;h1 style=&quot;margin-top: 0px;&quot;&gt;MyTable2&lt;/h1&gt;&lt;p&gt;&lt;span style=&quot;background-color: initial;&quot;&gt;Columns, Column Groups, Timestamp/Version&lt;/span&gt;&lt;span style=&quot;background-color: initial;&quot;&gt;.&lt;/span&gt;&lt;/p&gt;" style="text;html=1;whiteSpace=wrap;overflow=hidden;rounded=0;" vertex="1" parent="1">
          <mxGeometry x="770" y="290" width="180" height="120" as="geometry" />
        </mxCell>
      </root>
    </mxGraphModel>
  </diagram>
</mxfile>
